<?xml version="1.0" encoding="UTF-8" standalone="no"?>
<svg width="20px" height="20px" viewBox="0 0 20 20" version="1.1" xmlns="http://www.w3.org/2000/svg" xmlns:xlink="http://www.w3.org/1999/xlink" xmlns:sketch="http://www.bohemiancoding.com/sketch/ns">
  <g id="Page-1" stroke="none" stroke-width="1" fill="none" fill-rule="evenodd" sketch:type="MSPage">
    <g id="Text-Highlight-2" sketch:type="MSLayerGroup" fill="#333333">
        <path d="M3.65707624,14.3745754 L1.95865903,16.0731295 L2.29564812,16.410341 L0.5,18.2059385 L3.55594046,19.6200008 L4.53059257,18.6452702 L4.86758166,18.9822864 L6.56599886,17.2839277 C6.92602661,17.4155319 7.34618913,17.3374285 7.63456276,17.0490316 L19.6425813,5.04004564 C20.038729,4.64386606 20.038729,3.99931762 19.6425813,3.60313804 L17.3367637,1.29713468 C16.9406161,0.900955105 16.2959243,0.900955105 15.8999719,1.29713468 L3.89195334,13.3061207 C3.60357971,13.5945175 3.52528734,14.0143234 3.65707624,14.3745754 L3.65707624,14.3745754 Z M4.86738642,17.3858526 L3.55476901,16.0731295 L4.3884558,15.2393755 L5.70107322,16.5520987 L4.86738642,17.3858526 L4.86738642,17.3858526 Z M4.76976501,14.0242816 L7.49262124,11.3015965 L9.63873021,13.4478784 L6.91606922,16.1707587 L4.76976501,14.0242816 L4.76976501,14.0242816 Z M3.31481559,18.2647113 L2.44168975,17.8605261 L3.09360549,17.2085579 L3.73224472,17.8472486 L3.31481559,18.2647113 L3.31481559,18.2647113 Z M18.7645744,4.32129895 L16.0419134,7.0441793 L13.8956092,4.89789742 L16.6182702,2.17501708 L18.7645744,4.32129895 L18.7645744,4.32129895 Z" id="Highlighter" sketch:type="MSShapeGroup"></path>
        <path d="M3.21826172,5.82080078 L5.59228516,5.82080078 L4.42431641,2.13916016 L3.21826172,5.82080078 Z M3.33886719,0 L5.54785156,0 L8.86132812,9.35644531 L6.74121094,9.35644531 L6.13818359,7.43310547 L2.69140625,7.43310547 L2.04394531,9.35644531 L0,9.35644531 L3.33886719,0 Z" id="A" sketch:type="MSShapeGroup"></path>
    </g>
  </g>
</svg>